<svg width="100" height="100" viewBox="0 0 100 100" fill="none" xmlns="http://www.w3.org/2000/svg">
<g clip-path="url(#clip0)">
<path fill-rule="evenodd" clip-rule="evenodd" d="M50.0829 14.7778C69.3647 14.7778 85 30.5001 85 49.889C85 69.2778 69.3647 85.0001 50.0829 85.0001C30.8011 85.0001 15.1658 69.2778 15.1658 49.889C15.1658 30.4723 30.8011 14.7778 50.0829 14.7778Z" fill="#000082"/>
<path d="M82.5213 82.482C100.44 64.4638 100.44 35.2506 82.5213 17.2324C64.6027 -0.785802 35.5508 -0.78581 17.6322 17.2324C-0.286453 35.2506 -0.286452 64.4638 17.6322 82.482C35.5508 100.5 64.6027 100.5 82.5213 82.482Z" fill="white"/>
<path fill-rule="evenodd" clip-rule="evenodd" d="M49.0608 14.8889H49.0884C52.0442 14.9722 55.0276 15.25 57.9282 15.8889C59.8066 16.3056 61.6851 17 63.3425 17.6667C66.4365 18.8889 70.3591 21.3611 72.7348 23.5278L75.0276 25.7222C75.6906 26.4167 76.1326 26.8889 76.7127 27.6111C76.9889 27.9445 77.2652 28.2778 77.5138 28.6111C79.1436 30.75 80.442 32.8611 81.5746 35.3334C82.3481 36.9722 82.9558 38.6667 83.453 40.4167C83.453 40.4445 83.4807 40.4722 83.4807 40.5278C83.5083 40.6111 83.4807 40.5556 83.5359 40.6111C83.5635 40.6389 83.5635 40.6111 83.5911 40.6667C83.6188 40.7222 83.5912 40.6945 83.6188 40.75C84.116 42.4722 84.3646 44.2222 84.6132 46.0278L84.779 47.75C84.8066 48 84.779 48.25 84.8066 48.4722C84.8066 48.5 84.8066 48.5278 84.8066 48.5556V50.6945L84.779 51.4167C84.7237 51.5556 84.6409 52.8889 84.6132 53.1945C84.558 53.7778 84.4751 54.3334 84.3923 54.9167C84.2265 56 84.0331 57.0833 83.7845 58.1389C83.2873 60.2222 82.6519 62.1111 81.8508 63.9167C81.0497 65.75 80.1381 67.3889 79.1436 68.9167C78.6188 69.7222 78.1215 70.4445 77.5414 71.1667C77.2376 71.5556 76.1602 72.9167 75.8011 73.25L74.8619 74.25C74.3094 74.8056 73.4806 75.6111 72.8729 76.1389C72.1823 76.7222 71.4641 77.3056 70.7458 77.8611C66.7956 80.8333 62.5138 82.8611 57.6243 83.9722C57.3481 84.0278 56.1878 84.25 56.0497 84.3056H56.0221H55.9945H55.9668L55.8287 84.3334C54.8619 84.5 53.9226 84.6111 52.9558 84.7222C51.3812 84.8889 49.5028 84.8611 47.8729 84.7778C47.3481 84.75 46.8232 84.6389 46.2983 84.6111C45.9668 84.6111 45.1105 84.4722 44.7237 84.4167C43.5083 84.2222 42.2928 83.9722 41.105 83.6389L39.0608 83.0278C38.5083 82.8611 37.9834 82.6389 37.4309 82.4445C36.4088 82.1111 34.4199 81.1389 33.5359 80.6389C33.0663 80.3611 32.5967 80.1111 32.1271 79.8333L30.8011 78.9722C30.6077 78.8611 30.442 78.7222 30.2762 78.6111C29.3646 78 28.5359 77.2778 27.6795 76.6111L27.3204 76.3056C27.2376 76.2222 27.1823 76.1945 27.0994 76.1111L26.1602 75.2778C25.8287 74.9722 24.6685 73.8056 24.3646 73.4445L24.1989 73.2778C23.7569 72.8333 23.3425 72.3611 22.9558 71.8611C22.3757 71.1389 21.7956 70.3611 21.2707 69.5834L21.105 69.3334C21.0773 69.2778 21.0497 69.25 21.0221 69.1945L19.9447 67.4167C19.8895 67.3056 19.8619 67.25 19.779 67.1389L19.1713 66C18.5083 64.6667 18.0939 63.6667 17.5691 62.3056L17.3481 61.6667C17.2652 61.4167 17.2099 61.2778 17.1271 61C17.0994 60.8611 17.0442 60.8056 17.0166 60.6667L16.5193 58.9722C16.2431 58.0278 16.0773 57.0556 15.884 56.0834C15.8287 55.8334 15.7735 55.5834 15.7458 55.3334C15.6353 54.5834 15.3591 52.5 15.3591 51.6945C15.3591 51.5556 15.3591 51.3889 15.3591 51.25C15.3591 51.1389 15.3315 51.0278 15.3315 50.9167V48.6389L15.3591 47.7778C15.3591 47.25 15.5249 45.9445 15.5801 45.3611C15.6906 44.3334 15.884 43.3334 16.105 42.3334C16.2983 41.3889 16.547 40.4445 16.8232 39.5278C17.0442 38.8056 17.4033 37.6389 17.7348 36.9167L18.674 34.7778C18.7293 34.6667 18.7569 34.5834 18.8121 34.4722L19.4199 33.3056C19.5304 33.1111 19.6133 32.9167 19.7237 32.75L20.3867 31.6389C20.7735 31 21.1602 30.3611 21.6022 29.7778C21.6851 29.6945 21.7127 29.6111 21.7956 29.5278L22.5414 28.5278C22.9282 28.0278 23.5083 27.2778 23.9226 26.8334L24.7514 25.9167C25.0276 25.5834 25.7182 24.9722 26.0497 24.6111C26.1326 24.5278 26.1878 24.4445 26.2983 24.4445C26.5193 24.2778 26.6851 24.0834 26.8784 23.9167C27.5138 23.3889 27.9558 22.9722 28.6464 22.4167C30.4696 21.0278 31.9061 20.0834 33.9503 18.9722C34.4475 18.6945 34.8895 18.4722 35.3867 18.25C35.6354 18.1389 36.7956 17.6389 36.9061 17.5556L40.5525 16.25C41.3536 16.0278 42.3757 15.7778 43.2044 15.6111C44.0884 15.4445 44.6409 15.3611 45.5525 15.2222C45.7182 15.1945 45.8563 15.1667 46.0497 15.1667L49.0608 14.8889ZM50.4144 17C50.6906 16.9722 51.1602 17.1945 51.326 17.3334C51.4641 19.4445 51.3812 21.5834 51.9061 23.5556C53.0663 28.0834 55.8287 30.3611 56.4917 32.5C57.6243 36.0556 55.0276 39.9445 54.3923 43.4445C53.4807 48.4445 57.0166 50.2222 61.326 49.3611C63.1215 49 64.779 48.1667 66.105 47.3611C68.8121 45.7222 68.8674 43.6111 72.5414 43.6667C73.9503 43.6945 74.2265 43.6111 75.3315 43.0834C75.6906 42.9167 76.0773 42.6667 76.4088 42.4722C76.7679 42.2222 77.7624 41.5 78.0663 42.3056C78.2597 42.8611 77.2652 43.3611 76.8784 43.6111C75.5801 44.4445 72.8729 46.0556 71.4365 46.6389C71.0497 46.8056 70.6077 46.9167 70.1657 47.0556C68.4807 47.6111 67.3204 48.6111 65.8011 49.4445C65.0276 49.8611 64.3646 50.1945 63.5083 50.5556C61.8784 51.2222 60.2486 51.75 58.7845 52.5833C58.0387 53 57.3481 53.4167 56.6575 53.8333C56.2983 54.0556 55.9668 54.25 55.5801 54.4445C55.4144 54.5278 54.5028 54.9722 54.4475 55C54.558 55.3889 54.9171 55.5834 54.8066 56.1667C54.7514 56.5 54.5856 56.6667 54.337 56.8611C54.2541 56.9167 54.1713 56.9445 54.116 57.0278C54.3094 57.2778 54.4751 57.3333 54.6132 57.7222C54.7237 58.0556 54.7514 58.4167 54.6132 58.75C54.3646 59.3889 53.7845 59.5556 52.9558 59.5278L53.7569 69.8333C56.105 70.9722 58.3978 73.9445 57.5967 77.8611C56.9613 80.9167 54.5028 83.3056 50.9668 83.3611C45.3867 83.4445 42.6519 77.1389 45 72.8056C45.442 72 46.0221 71.3334 46.7127 70.75C46.8508 70.6389 46.9889 70.5278 47.1547 70.4167C47.4586 70.1945 47.7624 70.0556 48.1215 69.8333L48.8674 59.5C48.232 59.4722 47.8729 59.5834 47.4862 59.1667C47.1547 58.8056 47.1823 58.25 47.2099 57.6667C47.0442 57.6945 46.7679 57.8889 46.6022 57.9722C46.3812 58.0834 46.1602 58.1667 45.9116 58.1945L45.9392 56.9167C45.2486 56.9167 44.9724 57.4167 44.558 57.6667C44.0331 57.9722 43.2873 57.8889 42.6519 57.8611C42.6795 57.3889 43.2873 57.1389 43.453 56.6389C43.1492 56.7222 43.011 56.8889 42.5967 56.9445C42.2928 56.9722 41.7679 56.9722 41.4365 56.9722C41.4917 56.6111 41.7127 56.4445 41.8508 56.1667C42.2376 55.4167 41.6574 54.4445 42.79 53.7778L42.9282 53.6945C42.9558 53.6667 42.9558 53.6667 42.9834 53.6389L42.8729 52.5833C43.0387 52.4167 43.5911 52.0556 43.8398 51.9445C44.8342 51.5278 46.4641 52.4167 47.8177 51.4167C47.8453 51.3889 47.8453 51.3889 47.8729 51.3611C47.8729 51.3611 47.8729 51.3611 47.9005 51.3334L47.9282 51.3056C47.9282 51.3056 47.9282 51.3056 47.9558 51.2778C47.8177 51.1945 47.569 51.1667 47.3757 51.1389V50.6945C46.9889 50.6667 46.6022 50.6667 46.2431 50.6111C45.7182 50.5278 45.9392 50.3056 46.0497 49.8889C45.5801 49.7778 45.3591 49.7778 44.9724 49.5278C44.779 49.3889 44.337 49 44.2265 48.8334C44.2818 48.5834 44.3646 48.6389 44.3646 48.3611C44.116 48.1111 43.8674 48.0556 43.6188 47.7222C43.5083 47.5834 43.4254 47.4722 43.3149 47.3334C43.2044 47.1945 43.0939 47.0834 42.9834 46.9722C43.0387 46.8334 43.1768 46.7222 43.232 46.5556C42.8453 46.2778 42.5967 45.9722 42.4033 45.5278C42.4862 45.4167 42.6519 45.3056 42.7624 45.2222C42.6243 45 41.9337 44.4722 41.8232 43.8334C41.9337 43.75 42.1547 43.6945 42.2928 43.6111C42.2099 43.4445 41.9061 43.3056 41.7679 43.0556C41.6298 42.75 41.7956 42.4722 41.8508 42.1945C41.1326 41.8056 41.1878 41.7778 40.7735 41.0834C40.6354 40.8334 40.442 40.9167 40 40.7778C39.3923 40.5556 39.1436 40.3056 38.7016 39.8611C38.2873 39.4445 37.4862 39.3056 36.6574 38.5834C36.6298 38.1389 36.9061 37.9445 36.9337 37.6111C36.4641 37.1667 35.0276 36.75 34.337 35.9167C34.1713 35.75 33.8398 35.3334 33.8121 35C34.3094 34.5834 34.2818 34.3334 34.6961 34.4722C35.1934 34.6389 35.3591 34.8056 35.9945 34.8334C35.9116 34.6945 34.6409 33.7778 34.337 33.5556C34.1436 33.4167 34.0055 33.25 33.8398 33.0834C33.2873 32.5278 32.4862 31.5278 32.3757 30.6667L33.0663 30.1667C33.7016 30.3611 34.5028 31.6389 35.4696 31.6111C35.221 31.2222 34.7514 30.9167 34.3923 30.5556C34.3094 30.4722 34.1989 30.3889 34.116 30.3056L33.3425 29.4722C33.0387 29.0556 32.7348 28.6389 32.5138 28.1389C32.2928 27.6667 32.0994 26.9722 32.1271 26.3611L32.9558 26.0834C33.232 26.2778 33.5359 26.75 33.7569 27.0278C33.9779 27.2778 34.337 27.6667 34.779 27.7778C34.6961 27.3889 34.0331 26.2778 33.8398 25.6945C33.3425 24.1945 33.0663 21.8889 33.674 20.4167C33.9779 19.6945 34.4751 19.1667 34.8342 18.5278L34.8619 18.5556C34.8895 18.5834 34.8895 18.5834 34.8895 18.6111C34.8895 18.6389 34.9171 18.7222 34.9171 18.7222C34.9447 18.8056 34.9724 18.8889 35 19C35.1934 19.75 35.1934 20 35.3315 20.75C35.7735 23.2778 36.6574 25.5278 38.1492 27.4445C38.453 27.8611 38.7569 28.1667 39.0884 28.5278C39.1989 28.6667 39.3094 28.75 39.4199 28.8889C39.5304 29 39.6409 29.1111 39.779 29.2222C40.884 30.2222 41.9337 31.1111 43.1215 32.0278C45.4144 33.8334 46.4365 34.9445 47.2099 38.8334C47.5967 40.8056 47.9005 43.6111 48.8121 45.3889C48.9779 45.6945 49.1436 45.9722 49.337 46.2222C49.4751 46.4167 49.779 46.8889 49.9171 47.0278C50.0276 46.9722 50.0552 46.8889 50.1934 46.8056C50.3315 46.6945 50.3867 46.7222 50.442 46.5C50.221 46.2778 50 46.1111 49.8342 45.8056C49.6685 45.5 49.6133 45.1667 49.4475 44.8889C49.337 44.6945 49.1989 44.6945 49.2541 44.4722C49.337 44.0556 49.6961 44.3334 49.0884 43.6667C48.9503 43.5278 48.895 43.4445 48.7845 43.3334C48.895 43.1945 49.0055 43.1389 49.0884 43.0278L48.8121 42.25C49.0884 42 49.1989 42.0556 49.0055 41.6945C48.9226 41.5556 48.7569 41.1389 48.7845 40.9722C48.8121 40.6667 49.2265 40.8056 49.0055 40.4167C48.5359 39.5556 48.8398 39.6111 49.2265 39.4167C49.116 39.1111 48.8674 38.6945 48.9503 38.3056C49.0331 37.9722 49.0884 38.1667 49.1713 38.0278C49.2818 37.8056 48.9226 37.6389 48.9503 36.9445H48.9779C49.0055 37 49.2265 36.8889 49.2265 36.7778C49.1989 36.6389 49.0608 36.4722 49.0055 36.3056C48.9226 36.1111 48.895 35.9167 48.9226 35.6945C48.9503 35.3889 49.0331 35.3889 48.895 35.1111C48.6464 34.6111 48.7569 34.25 48.6188 34C48.5359 33.8611 48.453 33.6945 48.3702 33.5556C48.0663 33.0556 47.9558 33.1111 48.5083 32.8056C48.2873 32.4722 47.3204 31.8334 47.3481 30.75L48.0939 30.9445C48.011 30.4722 46.9061 29.5834 46.4365 28.5278C46.0497 27.6111 45.8287 26.1111 45.9668 25L46.8232 24.9167C47.0442 25.1389 47.3757 26.2222 47.8729 26.9445L48.3149 27.5556C48.2044 27.0834 47.9005 26.4445 47.7348 25.9722C47.3204 24.8056 46.9613 23.6111 47.0718 22.3334C47.0994 21.9167 47.3204 20.8611 47.4862 20.5834C49.3094 20.4722 47.79 21.8334 49.337 24.8889C49.5304 25.2778 49.8619 25.9445 50.221 26.1111C50.1381 25.4722 49.6685 24.5278 49.4751 23.9167C48.4807 21.2222 48.7569 19.1389 50.4144 17Z" fill="#02447E"/>
<path fill-rule="evenodd" clip-rule="evenodd" d="M41.7403 43.0555C41.8784 43.3055 42.1823 43.4444 42.2651 43.611C42.127 43.6666 41.906 43.7499 41.7955 43.8333C41.906 44.4444 42.5966 44.9999 42.7347 45.2222C42.6243 45.3055 42.4585 45.4166 42.3756 45.5277C42.569 45.9999 42.8176 46.2777 43.2044 46.5555C43.1491 46.6944 42.9834 46.8055 42.9557 46.9722C43.0386 47.0833 43.1767 47.1944 43.2872 47.3333C43.3977 47.4444 43.4806 47.5833 43.5911 47.7221C43.8397 48.0555 44.0883 48.111 44.337 48.361C44.337 48.6388 44.2541 48.5833 44.1988 48.8333C44.3093 48.9999 44.7237 49.4166 44.9447 49.5277C45.3314 49.7777 45.5524 49.7777 46.022 49.8888C45.9115 50.2777 45.6906 50.5277 46.2154 50.611C46.5745 50.6666 46.9613 50.6666 47.348 50.6944V51.1388C47.5414 51.1944 47.79 51.1944 47.9281 51.2777C47.9281 51.2777 47.9281 51.3055 47.9005 51.3055L47.8729 51.3333C47.8729 51.3333 47.8729 51.3333 47.8452 51.361C47.8176 51.3888 47.8176 51.3888 47.79 51.4166C46.4364 52.4166 44.8066 51.5277 43.8121 51.9444C43.5635 52.0555 43.011 52.4166 42.8452 52.5833L42.9557 53.6388C42.9281 53.6666 42.9281 53.6666 42.9005 53.6944L42.7624 53.7777C41.6298 54.4444 42.2099 55.4444 41.8231 56.1666C41.685 56.4444 41.464 56.611 41.4088 56.9721C41.7403 56.9721 42.2375 56.9999 42.569 56.9444C42.9834 56.8888 43.1215 56.7499 43.4254 56.6388C43.2872 57.1388 42.6519 57.3888 42.6243 57.861C43.2596 57.8888 44.0055 57.9721 44.5303 57.6666C44.9447 57.4166 45.1933 56.9166 45.9115 56.9166L45.8839 58.1944C46.1602 58.1666 46.3535 58.0555 46.5745 57.9722C46.7403 57.8888 47.0165 57.6944 47.1823 57.6666C47.1546 58.2499 47.127 58.8055 47.4585 59.1666C47.8452 59.5833 48.2044 59.4999 48.8397 59.4999L48.0939 69.8333C47.7624 70.0555 47.4309 70.1944 47.127 70.4166C46.9613 70.5277 46.8231 70.6388 46.685 70.7499C45.9944 71.3333 45.4143 71.9721 44.9723 72.8055C42.6243 77.111 45.3591 83.4166 50.9392 83.361C54.5027 83.3055 56.9336 80.9166 57.569 77.861C58.3701 73.9721 56.0773 70.9999 53.7292 69.8333L52.9281 59.5277C53.7569 59.5555 54.337 59.3888 54.5856 58.7499C54.7237 58.4444 54.6961 58.0555 54.5856 57.7221C54.4475 57.3333 54.2817 57.2777 54.0883 57.0277C54.1712 56.9444 54.2265 56.9166 54.3093 56.861C54.558 56.6944 54.7237 56.5277 54.7789 56.1666C54.8894 55.5555 54.558 55.3888 54.4198 54.9999C54.4751 54.9444 55.4143 54.4999 55.5524 54.4444C55.9392 54.2499 56.2707 54.0555 56.6298 53.8333C57.348 53.4166 58.0386 52.9999 58.7568 52.5833C60.2209 51.7499 61.8508 51.2222 63.4806 50.5555C64.337 50.1944 64.9999 49.861 65.7734 49.4444C67.2928 48.611 68.453 47.611 70.1381 47.0555C70.5524 46.9166 70.9944 46.8055 71.4088 46.6388C72.8452 46.0555 75.5248 44.4722 76.8508 43.611C77.2375 43.361 78.232 42.861 78.0386 42.3055C77.7348 41.4999 76.7679 42.2499 76.3812 42.4722C76.0773 42.6666 75.6629 42.9166 75.3038 43.0833C74.1988 43.6388 73.9226 43.6944 72.5138 43.6666C68.8397 43.6388 68.7569 45.7222 66.0773 47.361C64.7237 48.1666 63.0939 48.9999 61.2983 49.361C56.9889 50.2222 53.453 48.4444 54.3646 43.4444C54.9999 39.9444 57.569 36.0555 56.464 32.4999C55.7734 30.3333 53.0386 28.0833 51.8784 23.5555C51.3812 21.5833 51.4364 19.4444 51.2983 17.3333C51.1325 17.1944 50.6629 16.9722 50.3867 16.9999C48.7292 19.1388 48.453 21.1944 49.337 23.9166C49.5303 24.5277 49.9999 25.4722 50.0828 26.111C49.7513 25.9444 49.3922 25.3055 49.1988 24.8888C47.6795 21.8055 49.1712 20.4722 47.348 20.5833C47.1546 20.861 46.9613 21.9166 46.9336 22.3333C46.8231 23.611 47.1546 24.8055 47.5966 25.9722C47.7624 26.4444 48.0939 27.111 48.1767 27.5555L47.7347 26.9444C47.2375 26.2222 46.906 25.1388 46.685 24.9166L45.8287 24.9999C45.6629 26.111 45.8839 27.611 46.2983 28.5277C46.7679 29.611 47.8452 30.4722 47.9557 30.9444L47.2099 30.7499C47.1823 31.8333 48.1491 32.4722 48.3701 32.8055C47.8176 33.0833 47.9281 33.0555 48.232 33.5555C48.3149 33.6944 48.3977 33.8333 48.4806 33.9999C48.6187 34.2777 48.5082 34.611 48.7568 35.111C48.895 35.3888 48.8397 35.3888 48.7845 35.6944C48.7568 35.9166 48.7845 36.111 48.8673 36.3055C48.9226 36.4722 49.0607 36.6388 49.0883 36.7777C49.0883 36.861 48.8673 36.9722 48.8397 36.9444C48.8397 36.9444 48.8397 36.9444 48.8121 36.9444C48.7845 37.6666 49.1436 37.8333 49.0331 38.0277C48.9502 38.1666 48.895 37.9722 48.8121 38.3055C48.7292 38.6944 48.9778 39.0833 49.0883 39.4166C48.7016 39.611 48.3977 39.5555 48.8673 40.4166C49.0883 40.8055 48.674 40.6666 48.6464 40.9722C48.6187 41.1388 48.8121 41.5555 48.8673 41.6944C49.0331 42.0555 48.9502 41.9999 48.674 42.2499L48.9502 43.0277C48.8673 43.1388 48.7292 43.2222 48.6464 43.3333C48.7568 43.4722 48.8121 43.5277 48.9502 43.6666C49.558 44.3055 49.1988 44.0277 49.116 44.4722C49.0607 44.7222 49.1988 44.7222 49.3093 44.8888C49.4751 45.1666 49.5303 45.4999 49.6961 45.8055C49.8618 46.111 50.0828 46.2777 50.3038 46.4999C50.2762 46.7222 50.1933 46.6944 50.0552 46.8055C49.9447 46.8888 49.9171 46.9722 49.7789 47.0277C49.6408 46.8888 49.337 46.4444 49.1988 46.2222C49.0055 45.9444 48.8397 45.6944 48.674 45.3888C47.7624 43.6388 47.4585 40.8055 47.0718 38.8333C46.2983 34.9166 45.3038 33.8333 42.9834 32.0277C41.8231 31.111 40.7458 30.2222 39.6408 29.2222C39.5027 29.111 39.4198 28.9999 39.2817 28.8888C39.1712 28.7777 39.0607 28.6666 38.9502 28.5277C38.6187 28.1666 38.3149 27.8333 38.011 27.4444C36.5193 25.4999 35.6353 23.2499 35.1933 20.7499C35.0552 19.9999 35.0828 19.7777 34.8618 18.9999C34.8342 18.9166 34.8066 18.8333 34.7789 18.7222C34.7789 18.6944 34.7513 18.611 34.7513 18.611C34.7237 18.5833 34.7513 18.5833 34.7237 18.5555L34.6961 18.5277C34.337 19.1666 33.8121 19.6944 33.5359 20.4166C32.9281 21.8888 33.2044 24.1944 33.7016 25.6944C33.895 26.3055 34.558 27.3888 34.6408 27.7777C34.1712 27.6666 33.8121 27.2777 33.6187 27.0277C33.3977 26.7499 33.0939 26.2777 32.8176 26.0833L31.9889 26.361C31.9889 26.9444 32.1823 27.6666 32.3756 28.1388C32.5966 28.6388 32.9005 29.0555 33.2044 29.4722L33.9778 30.3055C34.0883 30.3888 34.1712 30.4722 34.2541 30.5555C34.6132 30.9166 35.0828 31.2222 35.3314 31.611C34.337 31.6388 33.5635 30.3333 32.9281 30.1666L32.2375 30.6666C32.348 31.5277 33.1491 32.5277 33.7016 33.0833C33.8673 33.2499 34.0055 33.3888 34.1988 33.5555C34.5027 33.7777 35.7734 34.7222 35.8563 34.8333C35.2486 34.8055 35.0552 34.6388 34.558 34.4722C34.1436 34.3333 34.1712 34.5833 33.674 34.9999C33.7292 35.3333 34.0607 35.7222 34.1988 35.9166C34.9171 36.7499 36.3259 37.1666 36.7955 37.611C36.7679 37.9444 36.4917 38.1388 36.5193 38.5833C37.3204 39.2777 38.1491 39.4444 38.5635 39.861C39.0055 40.3055 39.2265 40.5833 39.8618 40.7777C40.3038 40.9166 40.4972 40.8333 40.6353 41.0833C41.0497 41.7777 40.9944 41.8055 41.7126 42.1944C41.7679 42.4722 41.6022 42.7499 41.7403 43.0555Z" fill="#FEFEFE"/>
<path fill-rule="evenodd" clip-rule="evenodd" d="M83.5359 40.6111C83.5359 40.2222 82.7625 38.0277 82.5691 37.5277C82.2652 36.7222 81.8509 35.7777 81.5194 34.9999L81.0774 34.0833C81.0221 33.9722 80.9945 33.8888 80.9393 33.8055C80.884 33.6944 80.8288 33.6111 80.7735 33.4999C79.6962 31.4999 78.6188 29.8611 77.2376 28.0555L75.9945 26.5833L74.2266 24.7499C74.1437 24.6666 74.0884 24.6111 74.0056 24.5277L72.3205 23.0277C72.2376 22.9444 72.1824 22.8888 72.0719 22.8333C71.1326 22.0277 69.7238 21.0555 68.7017 20.3888C68.094 19.9999 67.6243 19.7222 67.0166 19.3888C66.7404 19.2222 65.0277 18.3055 64.6409 18.1666L63.3702 17.6111C63.2597 17.5555 63.1768 17.5277 63.0663 17.4722L61.4365 16.8611C61.2155 16.7777 60.9945 16.6944 60.7735 16.6388C60.5525 16.5555 60.3315 16.4999 60.1105 16.4166C59.9724 16.3611 59.8895 16.3611 59.779 16.3333C58.4807 15.9722 57.8177 15.8055 56.5194 15.5277C56.2708 15.4722 55.9945 15.4444 55.7459 15.3888C55.3039 15.3055 53.7293 15.0833 53.3426 15.0833C52.8177 15.0555 52.2376 14.9722 51.6851 14.9722C51.8509 15.0555 54.4199 15.3055 54.8619 15.3888C55.9116 15.5277 56.9337 15.6944 57.9006 15.9166C59.779 16.3333 61.6575 17.0277 63.315 17.6944C66.4089 18.9166 70.3315 21.3888 72.7072 23.5555L75 25.7499C75.663 26.4444 76.105 26.9166 76.6851 27.6388C76.9614 27.9722 77.2376 28.3055 77.4862 28.6388C79.1161 30.7777 80.4144 32.8888 81.547 35.3611C82.3205 36.9999 82.9282 38.6944 83.4254 40.4444C83.4254 40.4722 83.4531 40.4999 83.4531 40.5555C83.5359 40.5833 83.5083 40.5555 83.5359 40.6111Z" fill="#FEFEFE"/>
<path fill-rule="evenodd" clip-rule="evenodd" d="M56.0497 84.2779C56.2707 84.2779 56.9613 84.1112 57.2375 84.0556C58.1768 83.8612 60.5248 83.2501 61.3812 82.889C61.5193 82.8334 61.6022 82.8334 61.7403 82.7779C61.8784 82.7223 61.9613 82.6667 62.0994 82.639L64.8066 81.5001C65.0276 81.389 65.221 81.2779 65.4419 81.1945C66.0773 80.9167 67.9281 79.8056 68.5083 79.4723C69.0607 79.139 69.7237 78.6945 70.2486 78.3056L71.906 77.0556C72.2652 76.7779 72.569 76.4723 72.9281 76.1945L73.9502 75.2779C74.4475 74.8334 76.0773 73.139 76.5193 72.5556C76.8508 72.1112 77.2375 71.6945 77.5966 71.1945L78.3978 70.1112C78.7569 69.6112 79.1989 68.9167 79.558 68.389L81.2707 65.2779C81.3259 65.1667 81.3536 65.0834 81.4088 64.9723L81.8784 63.9723C82.0718 63.5556 82.8176 61.6667 82.9558 61.1945L83.4254 59.7223C83.5083 59.4723 83.5635 59.2223 83.6464 58.9723C84.1989 57.0279 84.779 53.4167 84.779 51.4167C84.7237 51.5556 84.6408 52.889 84.6132 53.1945C84.558 53.7779 84.4751 54.3334 84.3922 54.9167C84.2265 56.0001 84.0331 57.0834 83.7845 58.139C83.2873 60.2223 82.6519 62.1112 81.8508 63.9167C81.0497 65.7501 80.1381 67.389 79.1436 68.9167C78.6187 69.7223 78.1215 70.4445 77.5414 71.1667C77.2375 71.5556 76.1602 72.9167 75.8011 73.2501L74.8618 74.2501C74.3094 74.8056 73.4806 75.6112 72.8729 76.139C72.1823 76.7223 71.4641 77.3056 70.7458 77.8612C66.7955 80.8334 62.5138 82.8612 57.6243 83.9723C57.348 84.0001 56.1878 84.2223 56.0497 84.2779Z" fill="#FEFEFE"/>
<path fill-rule="evenodd" clip-rule="evenodd" d="M26.2707 24.4167C26.4917 24.2501 26.6574 24.0556 26.8508 23.8889C27.4862 23.3612 27.9281 22.9445 28.6188 22.3889C30.442 21.0001 31.8784 20.0556 33.9226 18.9445C34.4199 18.6667 34.8618 18.4445 35.3591 18.2223C35.6077 18.1112 36.7679 17.6112 36.8784 17.5278C36.5469 17.5556 34.6132 18.5556 34.2541 18.7223L32.1547 19.8889C31.3812 20.3612 30.5525 20.8889 29.8342 21.4167C29.116 21.9445 28.2044 22.6112 27.5414 23.2223L27.2652 23.4723C27.2099 23.5278 27.1823 23.5278 27.0994 23.6112C26.9889 23.6945 26.906 23.7778 26.7956 23.8889C26.6574 24.0278 26.3812 24.1945 26.2707 24.4167Z" fill="#FEFEFE"/>
<path fill-rule="evenodd" clip-rule="evenodd" d="M47.3205 2.19449C45.3315 2.36115 43.7845 2.52782 41.9613 2.77782C37.7901 3.38893 32.0995 5.38893 28.5912 7.22227C23.1216 10.0834 18.7569 13.5 15.1105 17.5278C12.9006 19.9723 10.5801 23.1112 8.83979 26.1389L7.79007 28.0834C4.25416 35.1389 1.96134 44.1389 2.67957 52.7778C3.31493 60.5556 4.83427 65.5 7.73482 71.5834C9.22653 74.7223 12.5691 79.6112 15 82.1667L17.9834 85.1389C19.6133 86.75 22.6519 89.0278 24.6961 90.3334C31.2707 94.5 39.116 97.1667 47.1547 97.5834C49.1437 97.6945 50.9116 97.6667 52.8729 97.5834C61.8785 97.1389 71.8785 93.3889 78.8398 87.8612C83.5912 84.0556 86.9337 80.5834 90.221 75.4167C99.0608 61.5556 100.138 43.1667 92.4862 28.3612C90 23.5556 86.2155 18.2223 82.21 14.8056C81.1326 13.8612 80.2763 13 79.0055 12.0834C75.1934 9.33338 72.4033 7.38893 67.6796 5.5556C64.6409 4.38893 61.8785 3.5556 58.4807 2.88893C55.3315 2.25004 50.6906 1.88893 47.3205 2.19449ZM46.2155 3.97227C52.9558 3.13893 60.7735 4.75004 66.1602 6.77782C81.4641 12.5 94.337 27.5 95.8011 46.0834C96.3536 53.25 95.2486 60.1389 93.0111 66.1112C91.989 68.8056 90.663 71.5556 89.2542 73.8056C88.4531 75.0834 87.7072 76.1945 86.9337 77.2223C84.4475 80.5834 81.768 83.3612 78.4807 86C66.0774 95.9723 49.0884 98.6667 34.0055 93.1112C24.1989 89.5 14.337 81.1945 9.58565 71.5556C6.65747 65.6389 5.02764 60.7223 4.39228 53.8056C3.06631 39.5278 8.95029 26.8889 15.7182 19.3612C22.431 11.8889 30.8564 6.69449 41.105 4.63893C42.8453 4.3056 44.4199 4.19449 46.2155 3.97227Z" fill="#02447E"/>
<path fill-rule="evenodd" clip-rule="evenodd" d="M47.5138 13.7777C42.127 14.3611 38.2044 15.2222 33.4254 17.7777C28.6187 20.3333 24.3922 23.8889 21.2431 28.1111C16.1878 34.9166 13.3425 43.7222 14.0884 52.4166C14.558 57.8055 15.8563 62.4444 18.0386 66.5833C22.1823 74.4722 28.9779 80.6111 37.0442 83.6944C49.1712 88.3333 61.9337 86.2222 72.0718 78.4722C76.9337 74.75 81.3259 69.0277 83.6188 62.9166C89.1989 48.0833 84.8895 32.7777 74.0884 23C71.1326 20.3333 66.9613 17.6111 62.9281 16.1111C58.7292 14.5555 52.7071 13.1944 47.5138 13.7777ZM84.6961 52.1111C84.0884 59.5277 81.7403 65.6111 77.569 71.0833C73.8121 76 68.4806 80.0277 62.7348 82.3611C58.5911 84.0277 52.9281 85.1944 47.8176 84.75C36.8232 83.8333 29.8342 79.1666 24.3646 73.4166C18.2044 66.9444 14.779 57.1111 15.3867 47.5277C16.2431 33.9166 24.9447 22.3889 37.3757 17.3611C41.1049 15.8611 47.6519 14.4444 52.2652 15.0277C54.8342 15.3611 57.2652 15.5833 59.6408 16.3333C61.8784 17.0277 63.9226 17.8055 65.8563 18.8055C73.3701 22.7222 79.337 29.25 82.4033 37.1111C84.0607 41.5 85.1381 46.8333 84.6961 52.1111Z" fill="white"/>
<path fill-rule="evenodd" clip-rule="evenodd" d="M87.1271 52.1112C87.6243 46.4723 86.4089 40.5835 84.5857 36.0557C79.2818 22.8612 66.989 13.5001 52.2928 12.5279C40.9392 11.7779 31.0221 16.5279 24.8895 22.2779C21.7956 25.1668 19.1437 28.4168 16.8785 32.8612C14.7514 37.0557 13.2873 42.0557 12.9006 47.5001C12.0995 59.3335 17.0166 68.9446 22.5967 75.139C28.7846 82.0279 37.8453 86.5557 47.7625 87.1668C59.2542 87.889 69.337 82.9168 75.1105 77.3335C82.431 70.2779 86.1879 63.1668 87.1271 52.1112ZM47.5138 13.7779C52.7348 13.1946 58.7293 14.5557 62.9282 16.1112C66.989 17.6112 71.1326 20.3335 74.0884 23.0001C84.8895 32.7779 89.1713 48.0835 83.6188 62.9168C81.326 69.0001 76.9337 74.7501 72.0718 78.4723C61.9613 86.2223 49.1989 88.3335 37.0442 83.6946C28.9779 80.6112 22.1823 74.4723 18.0387 66.5835C15.884 62.4446 14.5857 57.8335 14.0884 52.4168C13.3149 43.7223 16.1879 34.9168 21.2431 28.1112C24.3923 23.8612 28.6188 20.3335 33.4254 17.7779C38.2044 15.1946 42.0995 14.3612 47.5138 13.7779Z" fill="#02447E"/>
<path fill-rule="evenodd" clip-rule="evenodd" d="M49.9171 80.5001V71.8334C49.9171 70.889 50.221 65.0834 50.1381 64.1667C50.1657 64.5834 49.6685 70.8612 49.4475 71.0834C49.2265 71.2779 48.5635 71.639 48.1768 71.9445C46.0221 73.5556 45.6906 76.5279 47.127 78.6112C47.5414 79.2223 48.7569 80.5001 49.9171 80.5001Z" fill="#02447E"/>
<path fill-rule="evenodd" clip-rule="evenodd" d="M48.3701 56.7779C48.7845 56.8334 49.1436 56.8334 49.4475 57.0279C49.7237 57.1945 49.9447 57.5279 50.1933 57.6112C50.221 57.3334 50.2486 57.0834 50.3315 56.8334C50.4143 56.6112 50.5801 56.3612 50.6077 56.1667C50.1381 56.1667 49.7514 56.1667 49.3094 56.2779C48.9779 56.3334 48.3425 56.5556 48.3701 56.7779Z" fill="#02518A"/>
<path fill-rule="evenodd" clip-rule="evenodd" d="M51.7679 57.361C51.9889 57.2499 52.8453 56.8332 52.9558 56.6666C52.7901 56.3332 52.4862 56.3055 52.1823 56.5555C52.0994 56.6944 51.7679 57.1388 51.7679 57.361Z" fill="#02518A"/>
<path fill-rule="evenodd" clip-rule="evenodd" d="M22.3481 81.6112V81.6667C22.3481 81.889 22.3481 81.8056 22.4033 82.0834C22.431 82.2223 22.4586 82.3056 22.4862 82.4168L23.5359 87.0279C23.8398 87.0279 27.9558 86.0556 28.5912 85.889C28.7017 85.8612 28.8398 85.8334 28.9227 85.8056C28.8951 85.7223 28.8674 85.5834 28.8398 85.4723C28.8122 85.3612 28.7846 85.2501 28.7569 85.139L27.6796 80.4167C27.3757 80.4167 27.21 80.4723 26.989 80.5279C26.768 80.5834 26.547 80.6112 26.326 80.6667L23.6464 81.2779C23.4254 81.3334 23.2044 81.389 22.9834 81.4445L22.3481 81.6112ZM25.4973 81.639L26.7127 81.3612C26.8232 81.3334 27.0442 81.2779 27.1547 81.2779L27.5138 82.9167C27.4033 82.9723 25.9945 83.2779 25.8564 83.3056C25.8287 83.2501 25.4973 81.7501 25.4973 81.639ZM23.1768 82.1667C23.3149 82.1667 23.4531 82.1112 23.5912 82.0834L24.4199 81.889C24.558 81.8612 24.7238 81.8056 24.8619 81.8056C24.9171 82.0834 25 82.3612 25.0553 82.639L25.2486 83.5001C25.1381 83.5001 24.9724 83.5556 24.8343 83.5834C24.6133 83.639 23.7293 83.8334 23.5912 83.8334L23.3149 82.6112C23.2321 82.4723 23.1768 82.3056 23.1768 82.1667ZM26.0221 84.0001L26.8508 83.8056C27.1547 83.7501 27.4033 83.6667 27.6796 83.6112C27.6796 83.7223 27.7348 83.889 27.7625 84.0279L28.0387 85.2779C27.9282 85.2779 27.7348 85.3334 27.6243 85.3612L26.7956 85.5556C26.6851 85.5834 26.4641 85.639 26.3812 85.6667L26.0221 84.0001ZM23.7017 84.5279L25.3591 84.139C25.4144 84.4167 25.4696 84.6945 25.5525 84.9723L25.7183 85.8334L24.8895 86.0001C24.7514 86.0279 24.6409 86.0556 24.4752 86.1112C24.337 86.139 24.1989 86.1945 24.0608 86.1945L23.7017 84.5279Z" fill="#02447E"/>
<path fill-rule="evenodd" clip-rule="evenodd" d="M29.7789 86.4999C29.7789 86.6666 29.8066 86.7499 29.8618 86.8611L32.0441 91.5277C32.2651 91.4999 32.79 91.2499 33.011 91.1388L34.2264 90.5555C34.3369 90.4999 34.4198 90.4722 34.5303 90.4166L36.3535 89.5555C36.464 89.4999 36.5469 89.4722 36.6574 89.4166C36.7126 89.3888 36.7679 89.3888 36.8231 89.3333C36.906 89.3055 36.906 89.2777 36.9889 89.2499C36.9889 88.9722 36.8231 88.7777 36.7403 88.5833L35.8839 86.7222C35.8286 86.6111 35.801 86.5277 35.7458 86.4166L34.7513 84.2222C34.4474 84.2499 33.8121 84.6111 33.4806 84.7499L32.2375 85.3333C32.0165 85.4444 31.8508 85.5277 31.6298 85.6388L29.7789 86.4999ZM32.8729 85.8611C33.011 85.8333 34.1712 85.2222 34.4198 85.1666C34.4474 85.2777 34.5303 85.4166 34.5856 85.5555L35.138 86.7222L33.5635 87.4444C33.5358 87.3888 33.5082 87.3333 33.4806 87.2499C33.3425 86.9444 32.9005 86.0555 32.8729 85.8611ZM30.6905 86.8888C31.1049 86.6666 31.8231 86.3888 32.2375 86.1666C32.3756 86.4166 32.4585 86.6666 32.5966 86.9166C32.6519 87.0555 32.7071 87.1666 32.7624 87.3055L32.9281 87.7222C32.6795 87.8611 32.4032 87.9722 32.1546 88.0833C32.0441 88.1388 31.464 88.4166 31.3535 88.4166C31.3259 88.3055 31.243 88.1666 31.1878 88.0277L30.7458 87.0833C30.7182 87.0277 30.7182 86.9722 30.6905 86.8888ZM33.8673 88.0277L35.4143 87.3055L36.1325 88.8611C35.9944 88.9166 35.9115 88.9722 35.7458 89.0277C35.6077 89.0833 35.4972 89.1666 35.359 89.2222C35.1657 89.3055 34.7237 89.5277 34.5579 89.5833L34.1159 88.6388C34.0607 88.4999 33.895 88.1666 33.8673 88.0277ZM31.7126 89.0555C31.8231 89.0277 32.348 88.7777 32.4861 88.6944C32.6795 88.6111 33.0938 88.3611 33.2596 88.3333C33.2872 88.4444 33.3701 88.6388 33.4253 88.7222L33.5911 89.1111C33.6463 89.2499 33.9226 89.8055 33.9226 89.9166L32.79 90.4444C32.6519 90.4999 32.5137 90.5555 32.4032 90.6388L31.7403 89.1944C31.7126 89.1111 31.7126 89.0833 31.7126 89.0555Z" fill="#02447E"/>
<path fill-rule="evenodd" clip-rule="evenodd" d="M56.4641 91.0278C56.7955 91.2501 57.2652 91.5001 57.6243 91.7223C57.8176 91.8612 58.011 91.9445 58.2044 92.0834L59.9723 93.1667C60.1657 93.3056 60.9944 93.8334 61.1878 93.8334C61.2431 93.8334 61.2154 93.8056 61.2431 93.7778L63.674 89.7223C63.7569 89.5556 63.9779 89.3056 63.9779 89.0834L61.6574 87.6667C61.5746 87.6112 61.4917 87.5556 61.3812 87.5001C61.2707 87.4445 61.1878 87.3889 61.0773 87.3056L59.6132 86.4167C59.5027 86.3612 59.4199 86.2778 59.2817 86.2778C59.0055 86.6945 58.3425 87.8056 58.0386 88.3056C57.9834 88.4167 57.9281 88.5001 57.8453 88.6112C57.5966 89.0556 56.8784 90.2501 56.6022 90.6667C56.5193 90.7778 56.4917 90.8612 56.4641 91.0278ZM60.1105 89.5834C59.8618 89.4445 58.7569 88.7223 58.6464 88.6945C58.674 88.6389 58.7016 88.5834 58.7569 88.5001C58.8121 88.4445 58.8397 88.3889 58.8674 88.3334L59.3094 87.6112C59.3922 87.4723 59.4475 87.3612 59.5304 87.2501C59.6408 87.2778 60.1381 87.5834 60.2486 87.6667C60.3867 87.7501 60.8839 88.0834 60.9944 88.1112C60.9944 88.2223 60.8563 88.3889 60.8011 88.5001L60.1105 89.5834ZM62.127 90.8334L60.6629 89.9445C60.6906 89.8334 60.8011 89.6667 60.8563 89.5556L61.5193 88.4445L62.2375 88.8889C62.4861 89.0278 62.7071 89.1945 62.9834 89.3334C62.9558 89.4445 62.8453 89.6112 62.7624 89.7223L62.127 90.8334ZM58.8674 91.6112C58.7569 91.5834 58.5911 91.4723 58.4806 91.4167L57.7348 90.9723C57.6519 90.9167 57.4585 90.7778 57.3757 90.7501C57.5138 90.5001 57.6519 90.2778 57.8176 90.0278C57.9834 89.7778 58.1215 89.5556 58.2596 89.3056C58.453 89.3334 59.558 90.1112 59.7513 90.1667C59.7237 90.2501 59.5856 90.4445 59.5304 90.5278L59.0884 91.2501C59.0331 91.3889 58.9502 91.5 58.8674 91.6112ZM60.9116 92.8612C60.7734 92.8334 59.6685 92.1112 59.4199 91.9723L60.3038 90.5L61.7955 91.3889C61.5469 91.7778 61.2707 92.2778 61.0221 92.6667C60.9668 92.7501 60.9392 92.7778 60.9116 92.8612Z" fill="#02447E"/>
<path fill-rule="evenodd" clip-rule="evenodd" d="M73.8398 79.5277C73.8398 79.6944 73.674 80.5555 73.6188 80.8055L72.9282 84.611C72.9282 84.7777 72.9834 84.7777 73.1215 84.8055L77.6795 85.6388C77.8177 85.6666 77.9282 85.6666 78.0387 85.6944C78.2044 85.7221 78.232 85.7777 78.3425 85.8055C78.3425 85.4999 78.7293 83.4444 78.8121 83.111L79.2265 80.7499C79.2818 80.4721 79.2818 80.5277 79.2818 80.3055V80.2777L76.5469 79.8055C76.105 79.7221 75.6353 79.6388 75.1934 79.5555L73.8121 79.3333V79.5277H73.8398ZM75.8563 82.1388C75.7735 82.111 74.2541 81.861 74.1989 81.8333C74.1436 81.8055 74.1713 81.7777 74.1989 81.6666L74.4475 80.1666C74.6685 80.1666 75.9392 80.4166 76.1326 80.4721L75.8563 82.1388ZM78.2044 82.5832L76.9613 82.361C76.8232 82.3333 76.6574 82.3055 76.5193 82.3055L76.7403 81.0555C76.7679 80.9444 76.7956 80.7221 76.7956 80.611C76.9613 80.611 77.0718 80.6388 77.2099 80.6666C77.5967 80.7499 78.1215 80.8055 78.4806 80.8888C78.3978 81.4444 78.3149 82.0277 78.2044 82.5832ZM75.442 84.4999C75.2486 84.4999 73.9779 84.2221 73.7569 84.1944C73.8121 84.111 73.895 83.5277 73.9226 83.361C73.9503 83.2221 73.9779 83.0555 74.0055 82.9444C74.0331 82.8055 74.0884 82.6388 74.0884 82.5277C74.2818 82.5277 75.6077 82.8055 75.7458 82.8333C75.7458 82.9721 75.5801 83.861 75.5248 84.0833C75.4972 84.1944 75.442 84.361 75.442 84.4999ZM77.7624 84.9166L76.105 84.611C76.105 84.3888 76.4088 83.1666 76.4088 82.9444C76.5746 82.9444 77.0442 83.0555 77.2652 83.0833C77.4033 83.111 77.5414 83.1388 77.6795 83.1666C77.79 83.1944 77.9834 83.2499 78.0939 83.2499C77.9558 83.7777 77.9005 84.3888 77.7624 84.9166Z" fill="#02447E"/>
<path fill-rule="evenodd" clip-rule="evenodd" d="M46.9613 91.4722C46.9613 91.7222 47.6795 92.3055 47.8729 92.5C47.9834 92.6111 48.011 92.6389 48.1215 92.7222L49.8342 94.4444C49.9724 94.5833 50.1657 94.8055 50.3315 94.9444C50.5248 95.0833 50.6906 95.25 50.8011 95.4444C51.1326 95.2778 53.2596 93 53.7569 92.5278C54.0884 92.1944 54.4475 91.8611 54.7237 91.5278C54.4751 91.1666 54.3094 91.0555 54.0331 90.7778C53.9779 90.7222 53.9503 90.7222 53.895 90.6666C53.8398 90.6111 53.8121 90.5833 53.7569 90.5278C53.4254 90.1944 53.1215 89.8889 52.79 89.5555L52.2928 89.0833C52.0994 88.8889 50.9116 87.7222 50.8563 87.6111C50.6077 87.75 50.0829 88.3055 49.8619 88.5278C49.5304 88.8611 49.2265 89.1666 48.895 89.5L47.2375 91.1944C47.1547 91.3333 47.0718 91.4444 46.9613 91.4722ZM50.8287 91.0555C50.6906 90.9722 50.1105 90.3611 49.9447 90.1666C49.779 90 49.7237 89.8889 49.6409 89.8611C49.6685 89.7222 49.9447 89.5555 50.0552 89.3889C50.1105 89.3055 50.1381 89.2778 50.1933 89.2222C50.3315 89.0833 50.6906 88.75 50.8011 88.6111C51.0497 88.7778 51.6851 89.5833 52.0442 89.8055L50.8287 91.0555ZM52.4862 92.7222C52.4585 92.6111 52.0442 92.25 51.9061 92.1111C51.7403 91.9444 51.4088 91.6944 51.2983 91.5278L52.1823 90.6111C52.2652 90.5 52.3757 90.3611 52.5138 90.3333L53.7016 91.5C53.5635 91.7222 53.0663 92.1944 52.8177 92.4444C52.7348 92.5278 52.6243 92.6944 52.4862 92.7222ZM49.1436 92.75C49.0331 92.6666 48.895 92.4722 48.7016 92.3055L48.0939 91.7222C48.011 91.6666 47.9834 91.6111 47.9282 91.5833C47.9834 91.4722 48.1215 91.3889 48.2044 91.25C48.3701 91.0278 48.9779 90.5278 49.116 90.3333C49.1712 90.3611 49.2265 90.4166 49.2817 90.4722C49.3646 90.5278 49.3646 90.5555 49.4199 90.6389C49.6409 90.8889 50.1933 91.3611 50.3315 91.5555C50.0828 91.75 49.337 92.7222 49.1436 92.75ZM50.8563 94.4444L49.6409 93.25C49.8895 92.9722 50.7182 92.1944 50.8287 92.0278L52.0442 93.2222C51.9061 93.4166 51.6574 93.6389 51.4641 93.8333C51.3259 93.9722 50.9945 94.3333 50.8563 94.4444Z" fill="#02447E"/>
<path fill-rule="evenodd" clip-rule="evenodd" d="M64.9448 88.6111C65 88.6389 65.0829 88.6389 65.2486 88.7222C65.3591 88.7778 65.4696 88.8056 65.5801 88.8611C66.6298 89.2778 67.7072 89.7778 68.7569 90.1944C69.0332 90.3056 69.779 90.6667 70.0829 90.6944L71.105 88.1389C71.1879 87.9167 71.2707 87.6944 71.3536 87.5L71.8785 86.2222C71.9613 86 72.0718 85.8056 72.0995 85.5278C71.8508 85.5278 69.6961 84.5833 69.5304 84.5278C69.337 84.4444 69.0884 84.3333 68.895 84.2778C68.6464 84.1667 67.0718 83.5 66.9613 83.5C66.9613 83.7778 66.3536 85.0833 66.2155 85.4444C66.1326 85.6667 66.0497 85.8611 65.9669 86.0833C65.8011 86.5278 65.6354 86.9444 65.442 87.3611C65.3591 87.5833 65.2763 87.7778 65.1934 88C65.1381 88.1111 65.1105 88.2222 65.0553 88.3333C65.0276 88.3889 64.9724 88.4722 64.9448 88.6111ZM68.3978 86.6111C68.1768 86.5833 66.989 86 66.7956 86C66.7956 85.8889 67.3481 84.5556 67.431 84.3889C67.7072 84.4444 68.7845 84.9722 69.0332 85.0278L68.5359 86.1944C68.5083 86.3056 68.3978 86.5 68.3978 86.6111ZM70.5525 87.5278L69.779 87.1944C69.6409 87.1389 69.5304 87.0833 69.3923 87.0278C69.2818 86.9722 69.116 86.8889 69.0055 86.8611C69.0055 86.75 69.4199 85.8333 69.4751 85.6667C69.5304 85.5278 69.5856 85.3889 69.6409 85.2778C69.779 85.3056 71.0221 85.8611 71.2431 85.9167L70.5525 87.5278ZM67.4586 88.8333C67.3757 88.8056 67.3481 88.7778 67.2652 88.75C67.0718 88.6667 65.9392 88.1944 65.8564 88.1944L66.3536 87C66.3812 86.8889 66.4917 86.6944 66.4917 86.5833C66.6298 86.5833 67.1547 86.8333 67.2928 86.8889L68.0939 87.2222C68.0387 87.5278 67.4862 88.75 67.4586 88.8333ZM69.6685 89.75L68.0939 89.1111C68.0939 88.9722 68.3426 88.4722 68.3978 88.3056L68.7293 87.5278L70.3315 88.1667L69.8343 89.3333C69.779 89.4722 69.7238 89.6111 69.6685 89.75Z" fill="#02447E"/>
<path fill-rule="evenodd" clip-rule="evenodd" d="M38.0387 89.6944C38.0663 89.8055 38.6741 90.6944 38.7846 90.8611C38.8674 90.9722 38.9227 91.0278 38.9779 91.1389L39.558 92C39.8067 92.3889 40.0553 92.75 40.3315 93.1389C40.4696 93.3333 40.5801 93.5277 40.7183 93.7222C40.8011 93.8333 41.0497 94.1944 41.0774 94.3333C41.1602 94.3333 41.1879 94.3055 41.2431 94.25C41.6299 93.9722 45.5525 91.3055 45.6906 91.25C45.6906 91.1389 45.5801 91.0277 45.5249 90.9444L44.9448 90.0833C44.8067 89.8889 44.6962 89.7222 44.558 89.5C44.3647 89.1944 42.6796 86.7222 42.652 86.6111C42.5415 86.6389 42.1547 86.9166 42.0718 86.9722C41.8785 87.1111 41.7127 87.2222 41.4917 87.3611C41.2984 87.5 41.105 87.6111 40.9116 87.75C40.7183 87.8889 40.5249 88 40.3315 88.1389L39.1713 88.9166C39.0055 89.0555 38.2044 89.6389 38.0387 89.6944ZM40.9945 88.5833C41.4089 88.3611 41.9614 87.8889 42.431 87.6389C42.7348 88.1111 43.0663 88.5833 43.3978 89.0555L41.9613 90.0278L40.9945 88.5833ZM39.0332 89.9166C39.116 89.8889 39.9724 89.2778 40.0829 89.2222C40.1658 89.1666 40.3591 89.0278 40.4696 89C40.6354 89.3055 41.3536 90.2778 41.4089 90.4444C41.2984 90.5 40.0553 91.3611 39.9724 91.3889C39.9448 91.2778 39.8067 91.1389 39.7514 91.0278L39.2818 90.3333C39.116 90.0833 39.116 90.1111 39.0332 89.9166ZM42.3481 90.5555L43.3978 89.8611C43.5359 89.7778 43.6464 89.7222 43.7569 89.6389L44.4752 90.6944C44.558 90.8055 44.6409 90.9444 44.7238 91.0555C44.6133 91.0833 43.4807 91.8889 43.2873 92.0277L42.8177 91.3055C42.7348 91.1389 42.3757 90.6944 42.3481 90.5555ZM40.3591 91.9166L41.4089 91.1944C41.4917 91.1389 41.6851 91 41.768 90.9722C41.8232 91.0278 42.7072 92.3055 42.7348 92.3889C42.6243 92.4444 42.4862 92.5277 42.3757 92.6111L41.6851 93.0833C41.6022 93.1389 41.4089 93.2777 41.326 93.3055L40.6078 92.2778C40.5249 92.1666 40.442 92.0277 40.3591 91.9166Z" fill="#02447E"/>
<path fill-rule="evenodd" clip-rule="evenodd" d="M51.9613 80.5001V71.8334C51.9613 70.889 51.6575 65.0834 51.7403 64.1667C51.7127 64.5834 52.2099 70.8612 52.4309 71.0834C52.6519 71.2779 53.3149 71.639 53.7017 71.9445C55.8564 73.5556 56.1879 76.5279 54.7514 78.6112C54.337 79.2223 53.1216 80.5001 51.9613 80.5001Z" fill="#02447E"/>
<path fill-rule="evenodd" clip-rule="evenodd" d="M47.1547 44.5556C46.7956 43.1389 46.4088 41.7778 46.0497 40.3334C45.884 39.6111 45.7735 38.8611 45.5801 38.1389C45.3591 37.3334 45.1105 36.8889 44.7237 36.3056C44.0055 35.2778 43.5359 34.5556 42.5967 33.7778C42.1271 33.3889 41.6851 32.9167 41.2431 32.4722C40.7182 32.0556 39.8619 31 39.5027 30.8889C39.7237 31.7778 40.5248 32.5834 41.0773 33.3056C42.5967 34.6111 44.2818 36.8889 44.8895 38.8056C45.3039 40.1111 45.6906 41.7778 46.0773 42.9445C46.2707 43.4167 46.7127 44.5556 47.1547 44.5556Z" fill="#FFFEFE"/>
<path fill-rule="evenodd" clip-rule="evenodd" d="M53.8121 31.3611C54.0884 32.0278 54.3094 32.4445 54.5304 33.1389C54.8342 34 54.5856 36.8056 54.6961 36.9445C54.8066 37.0556 55.0828 36.3056 55.1381 36.1389C55.3867 35.1111 55.5248 34.0278 55.221 32.75C54.9447 31.9445 54.8342 31.75 54.4199 30.9445C54.2541 30.6945 53.5083 29.5278 53.3701 29.3889C52.79 29.6945 53.6464 31 53.8121 31.3611Z" fill="#FFFEFE"/>
<path fill-rule="evenodd" clip-rule="evenodd" d="M83.5083 67.9445C83.7293 68.25 83.895 68.4723 84.0055 68.6111C84.116 68.75 84.2818 68.9167 84.4475 69.0834C84.6133 69.25 84.779 69.3889 84.9448 69.5278C85.1105 69.6667 85.3039 69.7778 85.4696 69.8889C85.8564 70.1111 86.2431 70.2778 86.6298 70.3889C87.0166 70.5 87.5138 70.5834 88.1492 70.6667L87.8729 71.1389C87.3757 71.1945 86.9061 71.1667 86.4365 71.0834C85.9669 71 85.5249 70.8334 85.1381 70.6111C84.8066 70.4167 84.4752 70.1389 84.1437 69.8334C83.7845 69.4723 83.4807 69 83.2044 68.4723L83.5083 67.9445ZM88.3149 68.6667L88.5912 68.0834C88.7293 67.7778 88.8122 67.5834 88.8398 67.4723C88.8674 67.3611 88.8674 67.2778 88.8122 67.1667C88.7569 67.0556 88.674 66.9723 88.5635 66.9167C88.4254 66.8611 88.3149 66.8334 88.2044 66.8611C88.0939 66.8889 88.0111 66.9445 87.9558 67.0556C87.9006 67.1389 87.7901 67.3611 87.6519 67.6667L87.4033 68.2223L88.3149 68.6667ZM85.221 67.25L86.7956 67.9723L86.8508 67.8056C86.9613 67.5556 86.989 67.3889 86.9613 67.25C86.9337 67.1111 86.7956 66.8611 86.547 66.4445L85.9669 65.5278L86.3812 64.6111L86.9061 65.3889C87.1271 65.6945 87.2652 65.9445 87.3205 66.1111C87.3757 66.2778 87.431 66.4445 87.4586 66.6667C87.6796 66.3334 87.9006 66.1389 88.1492 66.0834C88.3978 66 88.674 66.0278 88.9227 66.1667C89.1437 66.2778 89.337 66.4167 89.4475 66.6111C89.558 66.8056 89.6133 67 89.5856 67.2223C89.558 67.4445 89.4751 67.7223 89.3094 68.1111L88.5912 69.7223L84.8343 68.0278L85.221 67.25ZM91.4917 62.4445L91.2431 63.1945L88.6464 62.3056L90.7182 64.7778L90.442 65.5556L86.547 64.2223L86.7956 63.4723L89.337 64.3334L87.3205 61.8889L87.5967 61.1111L91.4917 62.4445ZM88.2321 58.5834L91.547 59.3611L91.8232 58.1667L92.4862 58.3334L91.7403 61.5278L91.0774 61.3611L91.3536 60.1667L88.0387 59.3889L88.2321 58.5834ZM93.1216 54.2223L93.0111 55.1667L90.7735 55.8611L92.7901 56.9445L92.6796 57.8056L89.7514 56.0278C89.4475 55.8334 89.1989 55.6389 89.0332 55.4723C88.8674 55.3056 88.8122 55.0834 88.8398 54.8334C88.8674 54.5834 88.9227 54.3889 88.9503 54.2778L89.558 54.3611C89.5304 54.4723 89.5304 54.5834 89.5028 54.6667C89.4752 54.8611 89.5028 55 89.558 55.0834C89.6133 55.1667 89.7514 55.2778 89.9724 55.3889L93.1216 54.2223ZM93.3702 50.8056L93.3149 51.6389L91.5746 51.5C91.5746 51.6945 91.6298 51.8056 91.6851 51.8889C91.768 51.9722 91.9613 52.0834 92.2928 52.25C92.7348 52.4445 92.9834 52.6389 93.0939 52.8334C93.1768 53.0278 93.2321 53.3056 93.2044 53.6667C93.2044 53.6945 93.2044 53.7223 93.2044 53.7778L92.5967 53.7222V53.6111C92.5967 53.4445 92.5967 53.3056 92.5691 53.2223C92.5415 53.1389 92.4862 53.0834 92.4033 53.0278C92.3204 52.9722 92.1547 52.8889 91.8785 52.7778C91.7403 52.7223 91.6298 52.6389 91.547 52.5834C91.4641 52.5278 91.3812 52.4167 91.2984 52.25C91.2431 52.4445 91.105 52.5834 90.9392 52.6945C90.7735 52.8056 90.5525 52.9167 90.2486 53.0278L89.0884 53.5L89.1713 52.5278L90.2763 52.1111C90.3039 52.1111 90.3315 52.0834 90.3591 52.0834C90.3867 52.0834 90.442 52.0556 90.5525 52C90.7735 51.9167 90.884 51.8334 90.9392 51.7778C90.9945 51.7222 91.0221 51.6111 91.0497 51.4722L89.2542 51.3334L89.3094 50.5L93.3702 50.8056ZM92.5967 48.6945L92.5691 48.0556C92.5691 47.7223 92.5415 47.5 92.5415 47.4167C92.5138 47.3056 92.4586 47.2223 92.3757 47.1389C92.2928 47.0556 92.1823 47.0278 92.0442 47.0278C91.9061 47.0278 91.7956 47.0834 91.7127 47.1389C91.6298 47.2223 91.5746 47.3056 91.5746 47.4167C91.547 47.5278 91.547 47.75 91.5746 48.1111L91.6022 48.7222L92.5967 48.6945ZM89.1989 48.8056L90.9116 48.75V48.5834C90.9116 48.3334 90.8564 48.1389 90.7735 48.0278C90.6906 47.9167 90.442 47.75 90.0553 47.5L89.1437 46.9167L89.116 45.9167L89.9448 46.3889C90.2763 46.5834 90.4973 46.7223 90.6354 46.8334C90.7735 46.9445 90.884 47.0834 90.9945 47.2778C91.0497 46.8889 91.1602 46.6111 91.3812 46.4445C91.5746 46.2778 91.8232 46.1667 92.1271 46.1667C92.3757 46.1667 92.5967 46.2223 92.7901 46.3334C92.9834 46.4445 93.1216 46.6111 93.2044 46.8334C93.2873 47.0278 93.3149 47.3611 93.3426 47.75L93.3978 49.5L89.2818 49.6111L89.1989 48.8056ZM87.8177 45.8611L87.7624 45.3334C88.1492 45 88.5636 44.7223 89.0055 44.5C89.4475 44.3056 89.8895 44.1667 90.3039 44.1111C90.8287 44.0556 91.3536 44.0834 91.8508 44.1945C92.2928 44.3056 92.6796 44.4723 93.0663 44.6667L93.1216 45.1945C92.5415 45 92.0166 44.8889 91.6298 44.8334C91.2155 44.7778 90.8011 44.7778 90.3591 44.8334C90.0553 44.8611 89.7514 44.9445 89.4475 45.0278C89.1437 45.1389 88.8398 45.25 88.5635 45.3889C88.3978 45.5 88.1492 45.6667 87.8177 45.8611ZM89.779 40.5278L91.1326 39.6389L89.5304 39.4445L89.779 40.5278ZM88.5359 42.3889L88.3426 41.5L89.1713 40.9445L88.8122 39.3334L87.8177 39.2223L87.6243 38.3611L91.989 39L92.1823 39.8611L88.5359 42.3889ZM86.2984 34.75L88.7845 35.3889L90.221 33.5278L90.5249 34.4445L89.6409 35.6111L91.0497 35.9722L91.3536 36.8889L89.0608 36.3056L87.4862 38.3611L87.1547 37.4167L88.1768 36.0834L86.5746 35.6667L86.2984 34.75ZM87.0718 32.6667L88.2321 31.5L86.6298 31.6111L87.0718 32.6667ZM86.2155 34.7222L85.8564 33.8889L86.5746 33.1667L85.884 31.6667L84.8895 31.75L84.5304 30.9445L88.9227 30.6945L89.2818 31.5L86.2155 34.7222ZM85.2763 29.3334L85.4972 30.1389C85.0553 30.2778 84.6685 30.2778 84.3094 30.1667C83.9779 30.0556 83.674 29.8056 83.453 29.4167C83.1492 28.9445 83.0663 28.4722 83.2044 27.9722C83.3426 27.4722 83.674 27.0556 84.1989 26.6945C84.779 26.3334 85.3315 26.1945 85.8287 26.2778C86.326 26.3611 86.7403 26.6667 87.0442 27.1389C87.3205 27.5556 87.4033 28 87.3205 28.4167C87.2652 28.6667 87.1271 28.9167 86.9061 29.1945L86.2984 28.6111C86.4641 28.4445 86.547 28.2778 86.547 28.0834C86.5746 27.8889 86.5193 27.6945 86.4088 27.5C86.2431 27.25 86.0221 27.0834 85.7459 27.0556C85.4696 27 85.1105 27.1111 84.6961 27.3889C84.2542 27.6667 84.0055 27.9445 83.9227 28.2223C83.8398 28.5 83.8674 28.7778 84.0332 29.0278C84.1437 29.2222 84.3094 29.3334 84.5304 29.3889C84.7238 29.4445 84.9724 29.4445 85.2763 29.3334ZM82.1823 20.7223L82.6796 21.3056L80.6077 23.1111L83.7569 22.5834L84.3094 23.2223L81.1879 25.9167L80.6906 25.3334L82.7348 23.5556L79.6133 24.0556L79.0608 23.4167L82.1823 20.7223ZM79.4199 17.9167L80.0276 18.5L78.8122 19.7778C78.9503 19.8889 79.0884 19.9445 79.1713 19.9445C79.2818 19.9445 79.5028 19.8611 79.8343 19.6945C80.2763 19.5 80.5801 19.4167 80.7735 19.4445C80.9669 19.4722 81.2155 19.6389 81.4917 19.9167C81.4917 19.9445 81.547 19.9445 81.5746 20L81.1602 20.4445L81.0774 20.3611C80.9669 20.25 80.8564 20.1667 80.7735 20.1389C80.6906 20.1111 80.6077 20.1111 80.4972 20.1389C80.4144 20.1667 80.221 20.25 79.9724 20.3889C79.8343 20.4445 79.7238 20.5 79.6133 20.5278C79.5028 20.5556 79.3647 20.5556 79.1989 20.5C79.3094 20.6667 79.337 20.8611 79.3094 21.0556C79.2818 21.25 79.2265 21.5 79.1437 21.8334L78.7569 23.0278L78.0387 22.3611L78.4254 21.25C78.4254 21.2222 78.4254 21.1945 78.453 21.1667C78.453 21.1389 78.4807 21.0834 78.5083 20.9445C78.5636 20.7222 78.5912 20.5834 78.5912 20.5C78.5635 20.4167 78.5083 20.3334 78.4254 20.2223L77.1823 21.5278L76.5746 20.9445L79.4199 17.9167ZM75.9392 15L76.547 15.4722L74.8619 17.6389L77.8453 16.5L78.5083 17L75.9945 20.25L75.3867 19.7778L77.0442 17.6389L74.0884 18.75L73.4254 18.25L75.9392 15ZM72.5415 12.6945L74.9724 14.25L72.7624 17.7223L72.0718 17.2778L73.9227 14.3889L72.8729 13.7222L71.9337 15.1945C71.6575 15.6111 71.4641 15.9167 71.326 16.0556C71.1879 16.1945 71.0497 16.3056 70.8564 16.3056C70.6906 16.3334 70.4972 16.2778 70.2486 16.1111C70.1658 16.0556 70.0276 15.9445 69.8066 15.8056L70.1658 15.25L70.3315 15.3611C70.4696 15.4445 70.5801 15.5 70.663 15.5C70.7459 15.5 70.8287 15.4167 70.9116 15.25L71.2984 14.6389L72.5415 12.6945ZM67.6243 13.8889L68.3426 14.25C68.5635 14.3611 68.7293 14.4445 68.8398 14.4723C68.9503 14.5 69.0608 14.5 69.1713 14.4445C69.2818 14.3889 69.3646 14.3334 69.4199 14.1945C69.5028 14.0278 69.5028 13.8611 69.4199 13.7222C69.337 13.5834 69.1437 13.4445 68.8674 13.2778L68.1216 12.8889L67.6243 13.8889ZM68.4254 10.4445L71.1602 11.8334L70.8564 12.4445L68.8674 11.4167L68.4254 12.2778L69.4199 12.7778C69.6961 12.9167 69.8895 13.0556 70.0553 13.2223C70.1934 13.3889 70.3039 13.5834 70.3315 13.8334C70.3591 14.0834 70.3315 14.3334 70.1934 14.5556C70.0553 14.8056 69.8895 14.9723 69.6685 15.0834C69.4475 15.1945 69.2542 15.25 69.0608 15.2223C68.8674 15.1945 68.6188 15.1111 68.3149 14.9722L66.5746 14.0834L68.4254 10.4445ZM64.3647 8.7778L65.221 9.11114L65.3315 11.4445L66.8785 9.75003L67.6796 10.0834L65.221 12.4722C64.9448 12.7222 64.7238 12.9167 64.5028 13.0278C64.2818 13.1389 64.0608 13.1389 63.8398 13.0556C63.6188 12.9722 63.4531 12.8889 63.3149 12.8056L63.5359 12.2222C63.6464 12.2778 63.7293 12.3056 63.8398 12.3611C64.0055 12.4445 64.1713 12.4445 64.2542 12.4167C64.3647 12.3889 64.4751 12.2778 64.6409 12.0834L64.3647 8.7778ZM60.442 7.61114L63.5912 8.5278L62.431 12.5L61.6298 12.2778L62.5691 8.97225L61.0221 8.5278L60.0829 11.8334L59.2818 11.6111L60.442 7.61114ZM58.0663 9.7778L58.8122 10.1667C58.6188 10.5834 58.3426 10.8889 58.0387 11.0556C57.7072 11.2223 57.3481 11.2778 56.9061 11.1945C56.3812 11.0834 55.9669 10.8334 55.6906 10.3889C55.4144 9.94447 55.3315 9.41669 55.442 8.7778C55.5525 8.11114 55.8287 7.61114 56.2431 7.30558C56.6575 7.00003 57.1547 6.88892 57.7072 7.00003C58.2044 7.08336 58.5635 7.30558 58.8398 7.66669C59.0055 7.88892 59.0884 8.13892 59.116 8.50003L58.2597 8.55558C58.2597 8.33336 58.1768 8.13892 58.0387 8.00003C57.9006 7.86114 57.7348 7.75003 57.5138 7.72225C57.21 7.66669 56.9613 7.72225 56.7127 7.91669C56.4917 8.11114 56.326 8.44447 56.2431 8.91669C56.1602 9.41669 56.1879 9.80558 56.326 10.0556C56.4641 10.3056 56.6851 10.4723 56.989 10.5C57.21 10.5278 57.4033 10.5 57.5967 10.3889C57.7901 10.25 57.9558 10.0556 58.0663 9.7778ZM51.4089 10.5L51.7127 6.38892L54.7514 6.61114L54.6961 7.30558L52.4862 7.13892L52.4033 8.05558L54.4475 8.22225L54.3923 8.91669L52.3481 8.75003L52.2652 9.86114L54.558 10.0278L54.5028 10.7222L51.4089 10.5ZM48.3149 7.11114L48.3426 8.27781H48.7845C49.116 8.27781 49.337 8.25003 49.4475 8.19447C49.558 8.13892 49.6409 8.08336 49.6961 7.97225C49.7514 7.88892 49.779 7.7778 49.779 7.63892C49.779 7.50003 49.7238 7.36114 49.6409 7.2778C49.558 7.19447 49.4475 7.11114 49.3094 7.11114C49.1989 7.08336 49.0055 7.08336 48.7017 7.11114H48.3149ZM47.5691 10.5834L47.4586 6.44447L48.7845 6.41669C49.2818 6.38892 49.6133 6.41669 49.779 6.44447C50.0276 6.50003 50.221 6.63892 50.3867 6.83336C50.5525 7.0278 50.6354 7.30558 50.6354 7.63892C50.6354 7.88892 50.6077 8.11114 50.5249 8.27781C50.442 8.44447 50.3315 8.58336 50.1934 8.69447C50.0553 8.80558 49.9171 8.86114 49.779 8.91669C49.5857 8.97225 49.3094 9.00003 48.9227 9.00003L48.3978 9.02781L48.453 10.5834H47.5691ZM41.1879 7.2778L41.9613 7.13892L42.4586 9.83336L43.6188 6.83336L44.4199 6.69447L45.1658 10.75L44.3923 10.8889L43.9227 8.22225L42.7624 11.1945L41.9613 11.3334L41.1879 7.2778ZM37.4033 8.27781L38.2044 8.05558L38.674 9.75003C38.8398 9.69447 38.9503 9.61114 39.0055 9.50003C39.0332 9.41669 39.0884 9.16669 39.116 8.80558C39.1713 8.33336 39.2542 8.00003 39.3923 7.86114C39.5304 7.72225 39.779 7.58336 40.1381 7.47225C40.1658 7.47225 40.1934 7.44447 40.2486 7.44447L40.4144 8.02781L40.3315 8.05558C40.1658 8.11114 40.0553 8.16669 40 8.22225C39.9448 8.2778 39.8895 8.36114 39.8619 8.47225C39.8343 8.55558 39.8066 8.75003 39.8066 9.05558C39.8066 9.19447 39.779 9.33336 39.7514 9.44447C39.7238 9.55558 39.6409 9.66669 39.5304 9.7778C39.7238 9.7778 39.8895 9.83336 40.0553 9.97225C40.221 10.0834 40.4144 10.2778 40.6077 10.5278L41.4641 11.4723L40.5249 11.75L39.7514 10.8611C39.7514 10.8611 39.7238 10.8334 39.6961 10.7778C39.6685 10.7778 39.6409 10.7222 39.5304 10.6111C39.3647 10.4445 39.2542 10.3334 39.1713 10.3056C39.0884 10.2778 38.9779 10.2778 38.8398 10.3056L39.337 12.0556L38.5359 12.2778L37.4033 8.27781ZM35.4144 8.94447L36.1879 8.63892L37.6796 12.5L36.9061 12.8056L35.4144 8.94447ZM33.8122 13.25L34.558 12.9445C34.8066 12.8611 34.9724 12.7778 35.0553 12.7223C35.1381 12.6667 35.1934 12.5834 35.2486 12.4722C35.3039 12.3611 35.2763 12.25 35.2486 12.1389C35.1934 11.9722 35.0829 11.8611 34.9171 11.8334C34.7514 11.8056 34.5304 11.8334 34.2265 11.9723L33.4531 12.2778L33.8122 13.25ZM31.7956 10.3611L32.5691 10.0556L33.1768 11.5834L34.1989 11.1667C34.4752 11.0556 34.7238 11 34.9448 11C35.1658 11 35.3868 11.0556 35.5801 11.1945C35.7735 11.3334 35.9392 11.5278 36.0221 11.7778C36.1326 12.0278 36.1326 12.2778 36.0774 12.5278C36.0221 12.7778 35.9116 12.9445 35.7735 13.0834C35.6354 13.2223 35.3868 13.3334 35.0829 13.4722L33.2873 14.1945L31.7956 10.3611ZM29.116 13.1111L28.3149 13.3611C28.1216 12.6945 28.3978 12.1389 29.0884 11.75C29.5028 11.5 29.8619 11.4167 30.1934 11.4723C30.5249 11.5278 30.7459 11.6945 30.884 11.9445C30.9945 12.1111 31.0221 12.3056 30.9945 12.5C30.9669 12.6945 30.9116 12.8889 30.7735 13.1111C31.0497 13.0556 31.2984 13.0556 31.4917 13.1389C31.6851 13.2223 31.8508 13.3611 31.989 13.5834C32.1823 13.8889 32.21 14.2222 32.0718 14.5556C31.9613 14.8889 31.6575 15.1667 31.2155 15.4445C30.8564 15.6667 30.5249 15.7778 30.221 15.7778C29.9448 15.7778 29.6409 15.6389 29.337 15.3611L29.8619 14.7778C30.0553 14.9445 30.221 15.0278 30.3868 15.0278C30.5249 15.0278 30.6906 14.9723 30.8564 14.8889C31.0774 14.75 31.2155 14.6111 31.2707 14.4445C31.326 14.2778 31.2984 14.1389 31.2431 14C31.1602 13.8611 31.0221 13.7778 30.8564 13.75C30.6906 13.7222 30.4973 13.7778 30.2486 13.9167L30.0829 14L29.779 13.4722L29.8619 13.4167C30.0829 13.2778 30.221 13.1389 30.2763 12.9722C30.3315 12.8056 30.3315 12.6389 30.221 12.4722C30.1381 12.3334 30.0276 12.25 29.8895 12.2222C29.7514 12.1945 29.5856 12.2222 29.4199 12.3334C29.1437 12.5 29.0332 12.75 29.116 13.1111ZM24.5304 14.6667L25.3039 14.1667L27.2652 15.4445L26.8232 13.1945L27.5414 12.7223L28.0387 16.1111C28.0939 16.4722 28.0939 16.7778 28.0663 17.0278C28.0387 17.25 27.9006 17.4445 27.7072 17.5834C27.4862 17.7223 27.3205 17.8056 27.21 17.8611L26.8785 17.3334C26.989 17.2778 27.0718 17.2223 27.1547 17.1667C27.3205 17.0556 27.4033 16.9445 27.4586 16.8611C27.4862 16.75 27.4862 16.5834 27.4033 16.3334L24.5304 14.6667ZM23.4254 21L20.7459 17.8611L21.6851 17.0556L24.0608 18.6945L22.7901 16.0834L23.7293 15.2778L26.4089 18.4167L25.8287 18.9167L23.7017 16.4445L25.1934 19.4445L24.5856 19.9722L21.8508 18.0278L23.9503 20.5L23.4254 21ZM19.7238 22.5L18.2044 21.9445L18.9779 23.3611L19.7238 22.5ZM21.9337 22.4167L21.3536 23.0834L20.4144 22.75L19.337 24L19.8066 24.8889L19.2265 25.5556L17.1823 21.6389L17.7624 20.9722L21.9337 22.4167ZM13.9779 25.8611L15.6354 23.5L18.9779 25.8889L18.5083 26.5834L15.7459 24.5834L15.0276 25.5834L16.4641 26.6111C16.8785 26.9167 17.1547 27.1111 17.2928 27.2778C17.431 27.4167 17.5138 27.5834 17.5414 27.75C17.5691 27.9167 17.4862 28.1111 17.3205 28.3334C17.2652 28.4167 17.1547 28.5556 16.989 28.75L16.4641 28.3611L16.5746 28.2223C16.6851 28.0834 16.7127 27.9722 16.7127 27.8889C16.7127 27.8056 16.6298 27.7222 16.4917 27.6111L15.9116 27.1945L13.9779 25.8611ZM13.5359 30.6389C13.9503 30.8611 14.3094 30.9445 14.6133 30.8889C14.9171 30.8334 15.1658 30.6389 15.3315 30.3611C15.4973 30.0834 15.5249 29.7778 15.442 29.4723C15.3315 29.1667 15.0829 28.8889 14.6685 28.6667C14.2542 28.4167 13.895 28.3334 13.5912 28.4167C13.2873 28.4723 13.0387 28.6667 12.8729 28.9723C12.7072 29.2778 12.6519 29.5834 12.7624 29.8611C12.8729 30.1389 13.1216 30.3889 13.5359 30.6389ZM13.1492 31.3889C12.7901 31.1667 12.5138 30.9445 12.3205 30.6945C12.1823 30.5 12.0718 30.3056 12.0166 30.0834C11.9613 29.8611 11.9337 29.6389 11.9613 29.4445C11.989 29.1667 12.0995 28.8889 12.2652 28.5834C12.5691 28.0556 12.9834 27.7222 13.4807 27.6111C13.9779 27.4722 14.5304 27.5834 15.1105 27.9167C15.6906 28.25 16.0497 28.6667 16.1879 29.1667C16.326 29.6667 16.2431 30.1945 15.9392 30.7223C15.6354 31.25 15.221 31.5834 14.7238 31.7222C14.2542 31.8334 13.7017 31.7222 13.1492 31.3889ZM9.83427 33.7778L10.1658 33.0278L11.768 33.75C11.8232 33.5834 11.8232 33.4445 11.7956 33.3611C11.7403 33.2778 11.6022 33.0834 11.326 32.8334C10.9945 32.5 10.8011 32.2223 10.7735 32.0278C10.7459 31.8334 10.8011 31.5556 10.9669 31.1945C10.9669 31.1667 10.9945 31.1389 11.0221 31.0834L11.5746 31.3334L11.5193 31.4445C11.4365 31.6111 11.4089 31.7222 11.4365 31.8056C11.4365 31.8889 11.4641 31.9722 11.547 32.0556C11.6022 32.1389 11.7403 32.2778 11.9337 32.4722C12.0442 32.5834 12.1271 32.6667 12.1823 32.7778C12.2376 32.8611 12.2928 33 12.2928 33.1667C12.4033 33.0278 12.5691 32.9167 12.7624 32.8889C12.9558 32.8334 13.2044 32.8056 13.5359 32.8056L14.779 32.75L14.3923 33.6389L13.2321 33.6667C13.2044 33.6667 13.1768 33.6667 13.1216 33.6667C13.0939 33.6667 13.0387 33.6667 12.9006 33.6945C12.6796 33.6945 12.5138 33.7223 12.4586 33.7778C12.3757 33.8334 12.3205 33.8889 12.2652 34.0278L13.895 34.7778L13.5635 35.5278L9.83427 33.7778ZM7.92819 39.9167L8.14918 39.1111L11.4365 40.0556L11.768 38.9167L8.48068 37.9722L8.70167 37.1667L11.989 38.1111L12.3205 36.9167L9.03316 35.9722L9.25416 35.1667L13.2044 36.2778L11.8785 41.0278L7.92819 39.9167ZM7.92819 43.8611L7.84532 44.5C7.81769 44.8334 7.79007 45.0556 7.79007 45.1389C7.79007 45.25 7.84532 45.3334 7.90057 45.4167C7.98344 45.5 8.09394 45.5556 8.23206 45.5556C8.37018 45.5834 8.48068 45.5556 8.59117 45.5C8.67405 45.4445 8.75692 45.3611 8.78454 45.25C8.81217 45.1389 8.86742 44.9167 8.89504 44.5834L8.97791 43.9723L7.92819 43.8611ZM11.326 44.2778L9.61327 44.0556L9.58565 44.2223C9.55802 44.4723 9.55803 44.6667 9.6409 44.7778C9.69615 44.8889 9.91714 45.1111 10.2763 45.4167L11.105 46.1111L10.9945 47.1111L10.2486 46.5C9.94476 46.25 9.7514 46.0834 9.6409 45.9445C9.5304 45.8056 9.4199 45.6389 9.36465 45.4723C9.25416 45.8334 9.08841 46.1111 8.86742 46.25C8.64642 46.3889 8.3978 46.4445 8.09394 46.4167C7.84532 46.3889 7.62432 46.3056 7.45858 46.1389C7.29283 46 7.18233 45.8056 7.12709 45.5834C7.09946 45.3611 7.09946 45.0556 7.15471 44.6389L7.3757 42.8889L11.4641 43.3889L11.326 44.2778ZM9.33703 48.6389L7.79007 49.1667L9.28178 49.7778L9.33703 48.6389ZM10.9945 47.1667L10.9669 48.0556L10.0276 48.3889L9.97239 50.0556L10.9116 50.4167L10.884 51.3056L6.82322 49.5834L6.85084 48.6945L10.9945 47.1667ZM7.40333 57.1667L7.29283 56.3334L10.6906 55.9167L10.5525 54.75L7.15471 55.1667L7.04421 54.3334L10.442 53.9167L10.3039 52.6945L6.90609 53.0834L6.79559 52.25L10.884 51.75L11.4917 56.6389L7.40333 57.1667ZM10.3315 58.5L10.3868 57.6667C10.8564 57.6945 11.2431 57.8056 11.5193 58.0556C11.7956 58.2778 11.989 58.6111 12.0718 59.0556C12.1823 59.5834 12.1271 60.0834 11.8232 60.5C11.547 60.9167 11.0774 61.2223 10.442 61.3611C9.77902 61.5278 9.22653 61.4722 8.75692 61.1945C8.31493 60.9445 8.01106 60.5278 7.90057 59.9445C7.79007 59.4445 7.84532 59.0278 8.06631 58.6389C8.20443 58.4167 8.3978 58.2223 8.70167 58.0556L9.08841 58.8056C8.89504 58.8889 8.75692 59.0278 8.67405 59.2223C8.59117 59.3889 8.56355 59.6111 8.6188 59.8056C8.67405 60.1111 8.83979 60.3334 9.11604 60.4723C9.36465 60.6111 9.72377 60.6111 10.221 60.5C10.7182 60.3889 11.0774 60.1945 11.2431 59.9723C11.4089 59.75 11.4641 59.4723 11.4089 59.1945C11.3536 58.9723 11.2431 58.8056 11.0774 58.6945C10.884 58.5556 10.6354 58.5 10.3315 58.5ZM9.08841 63.8611L8.78454 63.0834L12.5967 61.5834L12.9006 62.3611L9.08841 63.8611ZM13.3702 65.4723L13.0663 64.7223C12.9834 64.4723 12.9006 64.3056 12.8453 64.2223C12.7901 64.1389 12.7072 64.0834 12.5967 64.0278C12.4862 64 12.3757 64 12.2376 64.0278C12.0718 64.0834 11.9613 64.1945 11.9337 64.3611C11.9061 64.5278 11.9337 64.75 12.0718 65.0556L12.3757 65.8334L13.3702 65.4723ZM10.4973 67.5278L10.1934 66.75L11.7127 66.1389L11.2984 65.1111C11.1879 64.8334 11.1326 64.5834 11.1326 64.3611C11.1326 64.1389 11.1879 63.9167 11.326 63.7223C11.4641 63.5278 11.6575 63.3611 11.9061 63.2778C12.1547 63.1667 12.4033 63.1667 12.6519 63.2223C12.9006 63.2778 13.0663 63.3889 13.2044 63.5278C13.3426 63.6667 13.4531 63.8889 13.5912 64.2223L14.3094 66.0278L10.4973 67.5278ZM14.2265 69.8056L15.221 69.3056L14.8619 68.6111C14.7238 68.3334 14.6409 68.1667 14.5856 68.1111C14.5028 68 14.4199 67.9445 14.3094 67.9167C14.1989 67.8889 14.0608 67.9167 13.9503 67.9723C13.8398 68.0278 13.7569 68.1111 13.7017 68.1945C13.6464 68.2778 13.6464 68.3889 13.6464 68.5C13.674 68.6111 13.7569 68.8611 13.9227 69.1945L14.2265 69.8056ZM12.7901 70.5556L13.6464 70.1389L13.3978 69.6389C13.2597 69.3611 13.1492 69.1667 13.1216 69.1111C13.0387 69 12.9558 68.9167 12.8453 68.8889C12.7348 68.8611 12.6243 68.8611 12.5138 68.9167C12.4033 68.9723 12.3205 69.0556 12.2928 69.1389C12.2652 69.25 12.2652 69.3611 12.2928 69.4723C12.3205 69.5556 12.431 69.7778 12.5967 70.1111L12.7901 70.5556ZM12.5415 71.6111L11.7956 70.1389C11.6575 69.8334 11.547 69.6111 11.4917 69.4723C11.4365 69.3056 11.4365 69.1667 11.4365 69C11.4641 68.8611 11.5194 68.6945 11.6022 68.5556C11.6851 68.4167 11.8232 68.3056 11.9613 68.2223C12.1271 68.1389 12.3205 68.1111 12.5138 68.1111C12.7072 68.1389 12.8729 68.1945 13.0387 68.3334C12.9834 68.0834 13.0111 67.8334 13.1216 67.6389C13.2044 67.4445 13.3702 67.2778 13.5912 67.1667C13.7569 67.0834 13.9503 67.0278 14.1437 67.0278C14.337 67.0278 14.5304 67.0556 14.6961 67.1667C14.8619 67.25 15 67.3889 15.1105 67.5834C15.1934 67.6945 15.3315 68 15.5801 68.4723L16.2155 69.7223L12.5415 71.6111Z" fill="#02447E"/>
</g>
<defs>
<clipPath id="clip0">
<rect width="100" height="100" fill="white"/>
</clipPath>
</defs>
</svg>
