<svg width="18" height="18" viewBox="0 0 18 18" fill="none" xmlns="http://www.w3.org/2000/svg">
<path fill-rule="evenodd" clip-rule="evenodd" d="M14.517 1.90103C12.9882 0.717873 11.0739 0 9 0C4.02806 0 0 4.02806 0 9C0 13.9719 4.02806 18 9 18C11.2733 18 13.3471 17.1492 14.9291 15.7533H8.41507L8.40177 13.839C12.3235 10.4225 14.7297 8.1226 14.7297 5.88922C14.7297 5.06499 14.4106 4.01477 12.9882 4.01477C11.8582 4.01477 10.7814 4.66617 10.9808 7.39143H8.69424C8.1226 4.22747 9.83752 1.72821 13.1078 1.72821C13.613 1.72821 14.0916 1.78139 14.517 1.90103ZM18 9C18 7.8966 17.7873 6.83309 17.4284 5.86263C17.3353 9.07976 14.0517 11.579 12.1374 13.2275H16.9498C17.6145 11.9646 18 10.5288 18 9Z" fill="#076FCD"/>
</svg>
