<svg width="15" height="15" viewBox="0 0 15 15" fill="" xmlns="http://www.w3.org/2000/svg">
<path d="M7.5 0C3.35767 0 0 3.35767 0 7.5C0 11.6423 3.35767 15 7.5 15C11.6423 15 15 11.6423 15 7.5C15 3.35767 11.6423 0 7.5 0ZM7.5 14.0625C3.88123 14.0625 0.9375 11.1187 0.9375 7.5C0.9375 3.88127 3.88123 0.9375 7.5 0.9375C11.1188 0.9375 14.0625 3.88123 14.0625 7.5C14.0625 11.1188 11.1187 14.0625 7.5 14.0625Z" fill=""/>
<path d="M8.16844 8.78537L8.42436 3.5166H6.57513L6.84281 8.78537H8.16844Z" fill=""/>
<path d="M7.50562 9.36658C6.88921 9.36658 6.45935 9.80813 6.45935 10.425C6.45935 11.0292 6.87794 11.4835 7.50562 11.4835C8.13326 11.4835 8.54108 11.0297 8.54108 10.425C8.5289 9.80816 8.12154 9.36658 7.50562 9.36658Z" fill=""/>
</svg>
