<svg width="18" height="18" viewBox="0 0 18 18" fill="" xmlns="http://www.w3.org/2000/svg">
<g clip-path="url(#clip0)">
<path d="M13.1302 10.7303L13.1235 10.7865C11.4742 9.96451 11.3017 9.85501 11.0887 10.1745C10.941 10.3958 10.5105 10.8975 10.3807 11.046C10.2495 11.1923 10.119 11.2035 9.89623 11.1023C9.67123 10.9898 8.94898 10.7535 8.09398 9.98851C7.42798 9.39226 6.98098 8.66101 6.84898 8.43601C6.62923 8.05651 7.08898 8.00251 7.50748 7.21051C7.58248 7.05301 7.54423 6.92926 7.48873 6.81751C7.43248 6.70501 6.98473 5.6025 6.79723 5.163C6.61723 4.725 6.43198 4.78051 6.29323 4.78051C5.86123 4.74301 5.54548 4.749 5.26723 5.0385C4.05673 6.36901 4.36198 7.7415 5.39773 9.201C7.43323 11.865 8.51773 12.3555 10.5007 13.0365C11.0362 13.2068 11.5245 13.1828 11.9107 13.1273C12.3412 13.059 13.236 12.5865 13.4227 12.0578C13.614 11.529 13.614 11.0903 13.5577 10.989C13.5022 10.8878 13.3552 10.8315 13.1302 10.7303Z" fill=""/>
<path d="M15.39 2.58671C9.62325 -2.98804 0.0795 1.05521 0.07575 8.91971C0.07575 10.4917 0.4875 12.0247 1.272 13.3785L0 18L4.75125 16.761C10.68 19.9635 17.997 15.711 18 8.92421C18 6.54221 17.07 4.30046 15.3787 2.61596L15.39 2.58671ZM16.5015 8.89946C16.497 14.6242 10.2127 18.1995 5.2425 15.2775L4.9725 15.117L2.16 15.8482L2.91375 13.1145L2.7345 12.8332C-0.3585 7.90946 3.195 1.47446 9.054 1.47446C11.0445 1.47446 12.9128 2.25071 14.3197 3.65696C15.726 5.05121 16.5015 6.91946 16.5015 8.89946Z" fill=""/>
</g>
<defs>
<clipPath id="clip0">
<rect width="18" height="18" fill=""/>
</clipPath>
</defs>
</svg>
