<svg width="20" height="20" viewBox="0 0 20 20" fill="none" xmlns="http://www.w3.org/2000/svg">
<g clip-path="url(#clip0)">
<path d="M19.1666 19.9999C18.9532 19.9999 18.7399 19.9182 18.5774 19.7557L12.7607 13.9391C12.4349 13.6132 12.4349 13.0866 12.7607 12.7607C13.0866 12.4349 13.6132 12.4349 13.9391 12.7607L19.7557 18.5774C20.0815 18.9032 20.0815 19.4299 19.7557 19.7557C19.5932 19.9182 19.3799 19.9999 19.1666 19.9999Z" fill="#076FCD"/>
<path d="M8.125 16.25C3.645 16.25 0 12.605 0 8.125C0 3.645 3.645 0 8.125 0C12.605 0 16.25 3.645 16.25 8.125C16.25 12.605 12.605 16.25 8.125 16.25ZM8.125 1.66667C4.56417 1.66667 1.66667 4.56417 1.66667 8.125C1.66667 11.6858 4.56417 14.5833 8.125 14.5833C11.6858 14.5833 14.5833 11.6858 14.5833 8.125C14.5833 4.56417 11.6858 1.66667 8.125 1.66667Z" fill="#076FCD"/>
</g>
<defs>
<clipPath id="clip0">
<rect width="20" height="20" fill="white"/>
</clipPath>
</defs>
</svg>
