<svg width="18" height="18" viewBox="0 0 18 18" fill="none" xmlns="http://www.w3.org/2000/svg">
<path d="M18 3.76471C17.3375 4.07353 16.6233 4.27647 15.8834 4.37353C16.6405 3.90588 17.2256 3.16471 17.501 2.27353C16.7868 2.71471 15.9952 3.02353 15.1606 3.2C14.4809 2.44118 13.5258 2 12.4417 2C10.4197 2 8.76769 3.69412 8.76769 5.78529C8.76769 6.08529 8.8021 6.37647 8.86233 6.65C5.79924 6.49118 3.0717 4.98235 1.25621 2.69706C0.937859 3.25294 0.75717 3.90588 0.75717 4.59412C0.75717 5.90882 1.40249 7.07353 2.40057 7.73529C1.78967 7.73529 1.2218 7.55882 0.722754 7.29412C0.722754 7.29412 0.722754 7.29412 0.722754 7.32059C0.722754 9.15588 1.99618 10.6912 3.6826 11.0353C3.37285 11.1235 3.04589 11.1676 2.71033 11.1676C2.47801 11.1676 2.2457 11.1412 2.02199 11.0971C2.48662 12.5882 3.83748 13.7 5.46367 13.7265C4.20746 14.75 2.61568 15.35 0.877629 15.35C0.585086 15.35 0.292543 15.3324 0 15.2971C1.6348 16.3735 3.57935 17 5.66157 17C12.4417 17 16.1673 11.2294 16.1673 6.22647C16.1673 6.05882 16.1673 5.9 16.1587 5.73235C16.8815 5.20294 17.501 4.53235 18 3.76471Z" fill="#076FCD"/>
</svg>
