<svg width="18" height="18" viewBox="0 0 18 18" fill="none" xmlns="http://www.w3.org/2000/svg">
<g clip-path="url(#clip0)">
<path d="M13.1302 10.7301L13.1235 10.7864C11.4742 9.96438 11.3017 9.85488 11.0887 10.1744C10.941 10.3956 10.5105 10.8974 10.3807 11.0459C10.2495 11.1921 10.119 11.2034 9.89623 11.1021C9.67123 10.9896 8.94898 10.7534 8.09398 9.98838C7.42798 9.39213 6.98098 8.66088 6.84898 8.43588C6.62923 8.05638 7.08898 8.00238 7.50748 7.21038C7.58248 7.05288 7.54423 6.92913 7.48873 6.81738C7.43248 6.70488 6.98473 5.60238 6.79723 5.16288C6.61723 4.72488 6.43198 4.78038 6.29323 4.78038C5.86123 4.74288 5.54548 4.74888 5.26723 5.03838C4.05673 6.36888 4.36198 7.74138 5.39773 9.20088C7.43323 11.8649 8.51773 12.3554 10.5007 13.0364C11.0362 13.2066 11.5245 13.1826 11.9107 13.1271C12.3412 13.0589 13.236 12.5864 13.4227 12.0576C13.614 11.5289 13.614 11.0901 13.5577 10.9889C13.5022 10.8876 13.3552 10.8314 13.1302 10.7301Z" fill="#076FCD"/>
<path d="M15.39 2.58683C9.62325 -2.98792 0.0795 1.05533 0.07575 8.91983C0.07575 10.4918 0.4875 12.0248 1.272 13.3786L0 18.0001L4.75125 16.7611C10.68 19.9636 17.997 15.7111 18 8.92433C18 6.54233 17.07 4.30058 15.3787 2.61608L15.39 2.58683ZM16.5015 8.89958C16.497 14.6243 10.2127 18.1996 5.2425 15.2776L4.9725 15.1171L2.16 15.8483L2.91375 13.1146L2.7345 12.8333C-0.3585 7.90958 3.195 1.47458 9.054 1.47458C11.0445 1.47458 12.9128 2.25083 14.3197 3.65708C15.726 5.05133 16.5015 6.91958 16.5015 8.89958Z" fill="#076FCD"/>
</g>
<defs>
<clipPath id="clip0">
<rect width="18" height="18" fill="white"/>
</clipPath>
</defs>
</svg>
